<?xml version="1.0" encoding="UTF-8" standalone="no"?>
<!-- Created with Inkscape (http://www.inkscape.org/) -->

<svg
   width="512"
   height="512"
   viewBox="0 0 512 512"
   version="1.1"
   id="svg1"
   inkscape:version="1.3 (0e150ed6c4, 2023-07-21)"
   sodipodi:docname="QuickTrimBlack_InkscapeSVG.svg"
   inkscape:export-filename="QuickTrimBlack_PlainSVG.svg"
   inkscape:export-xdpi="192"
   inkscape:export-ydpi="192"
   xmlns:inkscape="http://www.inkscape.org/namespaces/inkscape"
   xmlns:sodipodi="http://sodipodi.sourceforge.net/DTD/sodipodi-0.dtd"
   xmlns:xlink="http://www.w3.org/1999/xlink"
   xmlns="http://www.w3.org/2000/svg"
   xmlns:svg="http://www.w3.org/2000/svg">
  <sodipodi:namedview
     id="namedview1"
     pagecolor="#505050"
     bordercolor="#eeeeee"
     borderopacity="1"
     inkscape:showpageshadow="0"
     inkscape:pageopacity="0"
     inkscape:pagecheckerboard="0"
     inkscape:deskcolor="#d1d1d1"
     inkscape:document-units="px"
     inkscape:zoom="2.1461796"
     inkscape:cx="280.7314"
     inkscape:cy="264.42335"
     inkscape:window-width="1920"
     inkscape:window-height="991"
     inkscape:window-x="-9"
     inkscape:window-y="-9"
     inkscape:window-maximized="1"
     inkscape:current-layer="layer1"
     inkscape:export-bgcolor="#00000000" />
  <defs
     id="defs1">
    <linearGradient
       id="linearGradient5"
       inkscape:collect="always">
      <stop
         style="stop-color:#000000;stop-opacity:1;"
         offset="0"
         id="stop5" />
      <stop
         style="stop-color:#000000;stop-opacity:0;"
         offset="1"
         id="stop6" />
    </linearGradient>
    <linearGradient
       inkscape:collect="always"
       xlink:href="#linearGradient5"
       id="linearGradient6"
       x1="279.56656"
       y1="246.48451"
       x2="476.66095"
       y2="255.33745"
       gradientUnits="userSpaceOnUse"
       gradientTransform="translate(-12.5)" />
  </defs>
  <g
     inkscape:label="Layer 1"
     inkscape:groupmode="layer"
     id="layer1">
    <path
       style="fill:url(#linearGradient6);fill-opacity:1;stroke:#000000;stroke-width:15;stroke-linecap:butt;stroke-linejoin:miter;stroke-dasharray:none;stroke-opacity:1"
       d="m 267.5,175 c 0,0 43.85161,-22.76522 100,-5.8065 C 416.2334,183.91264 468.5296,165 468.5296,165 l -0.65894,162 c 0,0 -51.17062,19.17909 -95.37066,-5.60217 C 328.29996,296.61658 267.5,320 267.5,320 Z"
       id="path4"
       inkscape:label="film"
       sodipodi:nodetypes="cscczcc" />
    <path
       style="font-weight:500;font-size:384px;line-height:1.25;font-family:Inter;-inkscape-font-specification:'Inter Medium';fill:#000000;fill-opacity:1"
       d="m 149.18182,294.54546 h 41.45454 l 29.18182,38.04545 13.77273,16.90909 26.69349,34.83462 137.2156,3.8e-4 48.46706,25.84682 H 237 l -31.09091,-40.5 -10.63636,-14.72727 z m 139.90909,-49.09091 c 0,29.81818 -5.45455,55.45454 -16.36364,76.90909 -10.90909,21.36363 -25.86363,37.81818 -44.86363,49.36364 -18.90909,11.45454 -40.40909,17.18181 -64.5,17.18181 -24.18182,0 -45.77273,-5.72727 -64.77273,-17.18181 -18.909091,-11.54546 -33.818182,-28.04546 -44.727273,-49.5 C 42.954546,300.77273 37.5,275.18182 37.5,245.45455 c 0,-29.81818 5.454546,-55.40909 16.363637,-76.77273 10.909091,-21.45455 25.818182,-37.90909 44.727273,-49.36364 19,-11.54545 40.59091,-17.31818 64.77273,-17.31818 24.09091,0 45.59091,5.77273 64.5,17.31818 19,11.45455 33.95454,27.90909 44.86363,49.36364 10.90909,21.36364 16.36364,46.95455 16.36364,76.77273 z m -41.72727,0 c 0,-22.72727 -3.68182,-41.86364 -11.04546,-57.40909 -7.27273,-15.63637 -17.27273,-27.45455 -30,-35.45455 -12.63636,-8.09091 -26.95454,-12.13636 -42.95454,-12.13636 -16.09091,0 -30.45455,4.04545 -43.09091,12.13636 -12.63637,8 -22.63637,19.81818 -30,35.45455 -7.272729,15.54545 -10.909093,34.68182 -10.909093,57.40909 0,22.72727 3.636364,41.90909 10.909093,57.54545 7.36363,15.54545 17.36363,27.36364 30,35.45455 12.63636,8 27,12 43.09091,12 16,0 30.31818,-4 42.95454,-12 12.72727,-8.09091 22.72727,-19.9091 30,-35.45455 7.36364,-15.63636 11.04546,-34.81818 11.04546,-57.54545 z"
       id="text"
       inkscape:label="text"
       aria-label="Q"
       sodipodi:nodetypes="cccccccccccsccscssccsccssccsccsccsccs" />
  </g>
</svg>
